# xmcd CD database file
#
# Track frame offsets:
#	160
#	17586
#	31544
#	47341
#	62571
#	82371
#	103667
#	116074
#	133570
#	149362
#	170589
#	192442
#	214213
#	236130
#	257294
#	273899
#	293102
#	311264
#
# Disc length: 4446 seconds
#
# Revision: 2
# Processed by: cddbd v1.5.2PL0 Copyright (c) Steve Scherf et al.
# Submitted via: CDex 1.82
#
DISCID=fc115c12
DTITLE=Barbra Streisand - The Ultimate Collection
DYEAR=2010
DGENRE=Jazz
TTITLE0=Woman In Love
TTITLE1=A Star Is Born (Love Theme from A STAR IS BORN)
TTITLE2=The Way We Were
TTITLE3=You Don't Bring Me Flowers (duet with NEIL DIAMOND)
TTITLE4=Guilty (duet with BARRY GIBB)
TTITLE5=No More Tears (Enough Is Enough)
TTITLE6=Don't Rain On My Parade
TTITLE7=Memory
TTITLE8=Papa, Can You Hear Me?
TTITLE9=As If We Never Said Goodbye
TTITLE10=Tell Him (duet with CELINE DION)
TTITLE11=Stranger In A Strange Land
TTITLE12=I've Dreamed Of You (Single Version)
TTITLE13=Send In The Clowns
TTITLE14=People (Single Version)
TTITLE15=Smile
TTITLE16=In The Wee Small Hours Of The Morning (Orchestra Version)
TTITLE17=Somewhere
EXTD=YEAR: 2010
EXTT0=
EXTT1=
EXTT2=
EXTT3=
EXTT4=
EXTT5=
EXTT6=
EXTT7=
EXTT8=
EXTT9=
EXTT10=
EXTT11=
EXTT12=
EXTT13=
EXTT14=
EXTT15=
EXTT16=
EXTT17=
PLAYORDER=
